<?xml version="1.0" standalone="no"?><!DOCTYPE svg PUBLIC "-//W3C//DTD SVG 1.1//EN" "http://www.w3.org/Graphics/SVG/1.1/DTD/svg11.dtd"><svg t="1640438758016" class="icon" viewBox="0 0 1024 1024" version="1.1" xmlns="http://www.w3.org/2000/svg" p-id="1127" xmlns:xlink="http://www.w3.org/1999/xlink" width="200" height="200"><defs><style type="text/css"></style></defs><path d="M1024 512c0 282.7776-229.2224 512-512 512S0 794.7776 0 512 229.2224 0 512 0s512 229.2224 512 512z" fill="#FF6D00" p-id="1128"></path><path d="M678.5152 396.8c25.7664 0 40.32 34.176 41.1776 54.784h37.7344a74.24 74.24 0 0 1 74.56 78.208c0 61.824-39.9104 150.656-112.512 167.424a88.8192 88.8192 0 0 1-89.6 83.584H373.2736A90.88 90.88 0 0 1 281.6 690.944V448a51.2 51.2 0 0 1 51.2-51.2h345.7152zM716.8 487.4112V652.8c42.6624-33.3952 64-71.7952 64-115.2 0-32.128-21.3376-48.8704-64-50.1888zM358.4 217.6a25.6 25.6 0 0 1 25.6 25.6v76.8a25.6 25.6 0 1 1-51.2 0v-76.8a25.6 25.6 0 0 1 25.6-25.6z m102.4 51.2a25.6 25.6 0 0 1 25.6 25.6v25.6a25.6 25.6 0 1 1-51.2 0v-25.6a25.6 25.6 0 0 1 25.6-25.6z m102.4 0a25.6 25.6 0 0 1 25.6 25.6v25.6a25.6 25.6 0 1 1-51.2 0v-25.6a25.6 25.6 0 0 1 25.6-25.6z" fill="#FFFFFF" p-id="1129"></path></svg>